<svg xmlns="http://www.w3.org/2000/svg" version="1.1" xmlns:xlink="http://www.w3.org/1999/xlink" xmlns:svgjs="http://svgjs.dev/svgjs" width="2000" height="2250" viewBox="0 0 2000 2250"><g transform="matrix(1,0,0,1,0.000015624999718966137,0)"><svg viewBox="0 0 320 360" data-background-color="#ffffff" preserveAspectRatio="xMidYMid meet" height="2250" width="2000" xmlns="http://www.w3.org/2000/svg" xmlns:xlink="http://www.w3.org/1999/xlink"><g id="tight-bounds" transform="matrix(1,0,0,1,0.0000025000000505315256,0)"><svg viewBox="0 0 320 360" height="360" width="320"><g><svg></svg></g><g><svg viewBox="0 0 320 360" height="360" width="320"><g><path transform="translate(-19.44751,3.1739) scale(3.53591,3.53591)" d="M67.6 10.7c0.2 0 1.8 0.8 2.7 1.1-0.3 0.1-1-0.2-1.8-0.5 0.2 0 0.6 0.1 1 0.3-0.2-0.2-1.7-0.7-1.9-0.9M52.7 7.6c0.3-0.1 3.8 0.4 5.4 0.5 0.1-0.1-0.2-0.1-0.6-0.2 0.5-0.1 1.5 0.2 2.2 0.3-2.1 0.1-4.4-0.5-6.4-0.3-0.7 0-0.2-0.2-0.6-0.3M49.8 7.6c1.8 0 3.2 0 0.6 0.2-0.3-0.1-0.7-0.1-0.6-0.2M78.1 15.9c0.2 0 1 0.9 1.4 1.2-0.1 0.1-0.9-0.7-1.3-1 0.1 0.1 0 0-0.1-0.2M76.1 14.6c-0.8-0.7-1.1-0.7-1.2-1.1 0.7 0.4 1.2 0.8 1.2 1.1M63.2 8.3c0.1-0.1 0.3 0.1 0.8 0.2-0.6-0.1-0.5 0-0.3 0.2-0.7-0.1-0.9-0.2-0.7-0.4 0.4 0.2 0.5 0.1 0.2 0M34.8 9.5c0-0.1 0.4-0.3 0.7-0.4-0.3 0.2-0.2 0.3 0.3 0.1 0 0.1-0.6 0.3-1 0.5 0.2-0.1 0.4-0.4 0-0.2M65.2 7.3c-0.3 0.1-1.4-0.5-2.5-0.7-0.6-0.2 2.4 0.5 2.5 0.7M6.2 56.7c0.6 2.5 0.2 2.4 0 0M6.3 41.7c0.1-0.4 0.2-1.5 0.3-1.4-0.3 2.4-0.8 3.5-0.9 5.3 0.3-1.6-0.1 0.9-0.2 1.5 0.1 0.8 0.1-0.5 0.3-0.3 0.2 0.3-0.4 4.5-0.2 2.2-0.2 2.1 0 4.4 0.4 5-0.5 3.2 2 10.4 2.5 11.9 0.1 0.1 0-0.5 0.2-0.1 0.2 1.3 1.1 2.2 1.4 3.6 0.3 0.4 1.5 2.6 1.7 3.1 0.4 0.8 0.6 0.7 1 1.5 1.2 2.3 3.1 4.5 4.9 6.6 5.8 6.8 14.7 12.4 24.6 14.4 9.9 2.1 20.3 0.6 28.4-3.3 0.5-0.3 0.4-0.4 1-0.6 2.8-0.9 6.2-3.8 8.1-4.9 0.9-1 3.3-2.7 3.6-3.7 1.7-1.4 3.4-3.7 4.3-5.2 0.5-0.8 0.9-0.8 1.1-1.3-0.1 0 1.6-2.1 2.1-3.3-0.2 0-0.5 0.6-0.5 0 3.6-6.9 5.6-16.2 4.5-22.6 0.2 7.9-1.8 16.7-5.6 22.3-1.7 3.6-5.2 7.5-8.4 10.3-0.5 0.5-1 1.1-1.6 1.5-1.9 1.6-4 2.9-6.2 4.1-5.2 2.9-11 5.4-17.8 5.5 11.7-1 22.2-6.9 28-14.1-4.4 4.3-6.3 6-11.2 8.5-0.4 0.7-3.7 2.1-5.9 2.7 1.3-0.6 4-1.6 4.9-2.4-7.3 3.5-15.4 5.5-23 4.4 2.9 0 7 0.1 10.9-0.6 0.6-0.2 0.9-0.4 1.6-0.5 7.6-1.7 14.9-5.4 20.1-10.6-3 2.7-7.5 5.9-10.4 6.9 2.7-1.5 7.6-4.4 9.2-6.6-3.2 3.2-9.2 6.4-13 7.8-0.6 0.1 0.4-0.4-0.6 0-1.2 0.3-0.7 0.3-1 0.5-4.6 1.3-9.9 2.4-14.3 2-0.8-0.1-1.1-0.3-1.8-0.3-0.8-0.1-1.5-0.1-2.4-0.1-3.5-0.4-7.3-1.8-10.1-3-1.5-0.7-3-1.2-4.5-2.1-1.2-0.7-2.2-1.5-3.2-2.3-3.8-2.8-7-5.6-10-9.6-5.4-7.5-8.2-16.9-7.8-26.2 0.4-9.3 4.1-18.4 10-25.1-0.3 0.3 0.4-0.7 1-1.3 0 0.2-0.1 0.5 0.6-0.2 0.6-0.7-0.2-0.2 0.1-0.6 6.2-6.8 17-12.3 28.1-12.5 0.4-0.3 1.1-0.7 1.9-0.5 0 0.1-0.5 0.1-0.5 0.1 1.1-0.1 2.1-0.1 2.6 0.1 0.1-0.1-0.4-0.2 0-0.2 0.7 0.2 0.9 0 1.3 0.2-0.3 0-0.6 0-0.8 0.1 2.5 0 4.1 0.6 6.6 0.8-1.3-0.3-1.6-0.3-2.6-0.6 1.1 0.2 1.6 0.4 2.1 0.3-0.2 0-0.1-0.3 0.1-0.2 2 0.5 2.2 0.7 4.3 1.4 0.2-0.2-0.9-0.3-1.2-0.6 2 0.7 3.8 1.2 5 2-0.4-0.3-1.6-0.7-2.5-1.1-0.1 0.1 0.3 0.2 0.4 0.4-1-0.5-2.4-1-3.8-1.2 1.2 0.3 2 0.7 2.5 0.9-1.1-0.2-2.5-0.9-4.1-1.2 2.6 0.8 7.5 2.6 10.5 4.2-1.1-0.7-2.4-1.2-3.1-1.6 0.6 0.1 1.3 0.5 1.3 0.3 0.7 0.3 1.6 1 2.1 1.1-0.9-0.6-2.7-1.5-3.3-1.8 7.5 3.4 14.2 9.1 18.5 16.4 0.4 0.7 1 2.3 1.5 2.5-0.1-0.5-0.5-0.8-0.9-1.6 0.2 0 0.2-0.3 0-0.6-0.4-0.5 0 0.4-0.4-0.1-1.8-3.3-4-6.2-7.4-9.4 1.9 1.8 0.5 0.5 0.1-0.1 2.6 2.3 5.6 6.2 6.9 8.2-0.2-0.3-0.3-0.5-0.2-0.5 2.4 4.1 3.9 7.8 5.4 13.1 0.1 0.1 0-0.4 0.2-0.1 1 4.2 1.3 7.7 1.2 10.9 0.8-5.4-1-13.8-4.2-20.4-0.4-0.8-0.4-0.2-0.8-1.1 0-0.3-0.3-0.9-0.5-1.3-4-6.6-8.9-11.3-14.7-15 0.4 0.2 1.2 0.8 1.2 0.7-10.8-7.1-23.3-8.1-33.6-5.9-0.7 0.3-1 0.6-1.8 1 1.5-0.5 2.4-0.6 3.8-0.9 0.3-0.3-1.3 0.1-0.6-0.2 0.1 0.1 1.4-0.2 1.7-0.1 0 0.1-0.4 0.2-0.5 0.3 3.3-0.7 6.7-0.8 9.6-0.6-1.7 0.1-4.8-0.2-5.8 0.3 1-0.1 2.4-0.2 3.3-0.1-1.2 0-3.4 0.1-4.4 0.2-0.1-0.1 1.6-0.3 0.5-0.3-0.5 0.1-1.3 0.1-1.6 0.4-8.6 0.8-17 5.3-22.9 10.6-1.2 1-2.6 2.1-3.5 3.2-2.2 2.5-3.6 5-5.2 7.2 1-2.1 3.2-5.3 5.8-8 2.6-2.7 5.4-5 6.9-6.2 0 0.4 2.4-1.5 3.3-2.1-0.6 0.5 0.4-0.2 0.6-0.1 3.2-1.9 5.8-2.6 8.7-3.7-0.7 0.2-1.3 0.4-1.4 0.3 0.7-0.2 1.1-0.4 1-0.5-2.8 0.8-7.2 2.7-10.7 4.8 6.3-4.3 14.3-6.9 22.2-7 7.9-0.2 15.6 1.8 21.7 5 4.1 1.8 8 5.1 11.1 8.3 0.9 0.8 0.2-0.2 1.5 1.2-0.4-0.2-0.7-0.4-0.2 0.2 0.8 0.9-0.2-0.7 1.1 0.9-0.1 0-0.5-0.5-0.5-0.3 3.5 3.1 6.2 8.7 7.8 12.4-0.4-1.5-1.4-3.6-2.2-5.1 2.4 4.4 3.2 7 4.2 10.9 0.4 0.3-0.2-1.4 0.2-0.6 0.1 0.6 0.2 2.5 0.6 2.8-0.3-1.9-0.8-4.2-1.2-4.6 0.3 0.2-0.5-2.3-1-2.9-0.2-1.6-1.6-4.4-2.8-6.5-4.3-8.4-12-15.3-20.6-19.1 0-0.2-0.5-0.4-0.7-0.6-8.5-3.6-18.7-4.6-28.5-2.3-9.9 2.4-19.2 8.1-25.8 16.3 0.3-1 2.8-2.9 2.9-3.7-2.9 3.1-6 7.2-8.1 11.6-2.2 4.4-3.4 8.9-3.9 12.2" fill="#007879" fill-rule="nonzero" stroke="none" stroke-width="1" stroke-linecap="butt" stroke-linejoin="miter" stroke-miterlimit="10" stroke-dasharray="" stroke-dashoffset="0" font-family="none" font-weight="none" font-size="none" text-anchor="none" style="mix-blend-mode: normal" data-fill-palette-color="tertiary"></path></g><g transform="matrix(1,0,0,1,70,90)"><svg viewBox="0 0 180 180" height="180" width="180"><g><svg viewBox="0 0 180 180" height="180" width="180"><g><svg viewBox="0 0 180 180" height="180" width="180"><g id="textblocktransform"><svg viewBox="0 0 180 180" height="180" width="180" id="textblock"><g><svg viewBox="0 0 180 180" height="180" width="180"><g transform="matrix(1,0,0,1,36.966991411008934,36.966991411008934)"><svg viewBox="0 0 106.06601717798213 106.06601717798213" height="106.06601717798213" width="106.06601717798213"><g><circle r="53" cx="53.033008588991066" cy="53.033008588991066" fill="#007879" data-fill-palette-color="accent"></circle><svg xmlns="http://www.w3.org/2000/svg" xmlns:xlink="http://www.w3.org/1999/xlink" version="1.1" x="15.90990257669732" y="15.90990257669732" viewBox="0 3 32 26" enable-background="new 0 0 32 32" xml:space="preserve" height="74.24621202458749" width="74.24621202458749" class="icon-kg-0" data-fill-palette-color="quaternary" id="kg-0"><g fill="#ffffff" data-fill-palette-color="quaternary"><rect x="12" y="3" width="8" height="8" fill="#ffffff" data-fill-palette-color="quaternary"></rect><polygon points="6,17 14,17 18,17 26,17 26,19 28,19 28,17 28,15 26,15 18,15 18,13 14,13 14,15 6,15 4,15 4,17 4,19 6,19  " fill="#ffffff" data-fill-palette-color="quaternary"></polygon><rect y="21" width="8" height="8" fill="#ffffff" data-fill-palette-color="quaternary"></rect><rect x="12" y="21" width="8" height="8" fill="#ffffff" data-fill-palette-color="quaternary"></rect><rect x="24" y="21" width="8" height="8" fill="#ffffff" data-fill-palette-color="quaternary"></rect></g></svg></g></svg></g><g><path d="M12.514 56.377c0.784 0.27 1.578 0.67 2.385 1.2 0.8 0.528 1.562 1.145 2.287 1.85 0.725 0.705 1.383 1.493 1.974 2.363 0.587 0.861 1.048 1.774 1.382 2.737 0.336 0.957 0.529 1.946 0.577 2.965 0.055 1.022-0.091 2.037-0.439 3.046v0c-0.071 0.207-0.156 0.413-0.254 0.617-0.092 0.207-0.19 0.408-0.293 0.604v0c-1.943-1.118-3.831-2.213-5.663-3.286v0c-0.782-0.438-1.593-0.892-2.433-1.363-0.838-0.478-1.667-0.942-2.486-1.393-0.82-0.451-1.606-0.886-2.359-1.307-0.746-0.418-1.427-0.783-2.043-1.092v0c0.097-0.689 0.207-1.384 0.329-2.085 0.129-0.699 0.312-1.393 0.549-2.083v0c0.281-0.815 0.647-1.46 1.098-1.936 0.445-0.478 0.955-0.818 1.529-1.02 0.578-0.193 1.198-0.271 1.858-0.233 0.658 0.044 1.325 0.183 2.002 0.416zM8.92 61.103c0.828 0.467 1.618 0.932 2.37 1.395 0.752 0.462 1.511 0.927 2.276 1.394 0.765 0.467 1.567 0.946 2.407 1.439 0.849 0.489 1.776 1.001 2.784 1.537v0c-0.113-0.446-0.318-0.909-0.615-1.39-0.297-0.481-0.667-0.966-1.108-1.455-0.435-0.487-0.914-0.96-1.436-1.42-0.518-0.452-1.03-0.867-1.538-1.244-0.508-0.378-0.995-0.704-1.463-0.977-0.463-0.265-0.876-0.459-1.239-0.585v0c-0.558-0.192-1.046-0.189-1.466 0.011-0.419 0.199-0.743 0.631-0.972 1.295z" fill="#007879" data-fill-palette-color="primary"></path><path d="M35.687 41.577c-0.096 0.11-0.268 0.338-0.516 0.685-0.244 0.341-0.494 0.7-0.749 1.075-0.246 0.374-0.469 0.712-0.669 1.013-0.2 0.301-0.303 0.47-0.309 0.508v0c-0.416-0.572-0.885-1.195-1.408-1.868-0.518-0.678-1.065-1.382-1.643-2.112-0.578-0.73-1.17-1.464-1.776-2.201-0.606-0.737-1.192-1.448-1.758-2.132v0c-1.32-1.594-2.682-3.221-4.086-4.88v0l1.994-3.207c1.373 1.675 2.72 3.319 4.041 4.933v0c0.565 0.684 1.153 1.392 1.764 2.124 0.606 0.728 1.211 1.452 1.817 2.17 0.596 0.719 1.18 1.411 1.753 2.076 0.569 0.67 1.084 1.275 1.545 1.816z" fill="#007879" data-fill-palette-color="primary"></path><path d="M59.149 24.153c-0.322 0.242-0.677 0.509-1.064 0.799-0.387 0.291-0.737 0.551-1.051 0.782v0c-0.183-0.495-0.362-0.985-0.539-1.469v0c-0.164-0.416-0.332-0.833-0.504-1.251-0.17-0.413-0.313-0.768-0.43-1.065v0l-1.844 0.959 0.73 3.498c-0.285 0.2-0.625 0.437-1.021 0.709-0.405 0.27-0.779 0.521-1.122 0.752v0c-0.422 0.294-0.836 0.584-1.241 0.869v0c-0.413-2.176-0.82-4.318-1.221-6.426v0c-0.168-0.884-0.345-1.808-0.532-2.772-0.184-0.958-0.368-1.916-0.552-2.874-0.184-0.958-0.358-1.876-0.523-2.754-0.174-0.881-0.341-1.683-0.501-2.407v0c0.922-0.569 1.857-1.163 2.806-1.783 0.942-0.617 1.843-1.256 2.701-1.919v0c0.194 0.474 0.439 1.061 0.735 1.759 0.301 0.695 0.638 1.45 1.009 2.266 0.371 0.816 0.757 1.665 1.156 2.548 0.408 0.886 0.809 1.758 1.202 2.615v0c0.941 1.984 1.941 4.095 2.999 6.331v0c-0.393 0.294-0.79 0.571-1.193 0.833zM51.669 14.524l1.45 6.004c0.059-0.031 0.16-0.087 0.304-0.169 0.141-0.088 0.292-0.178 0.454-0.27 0.162-0.091 0.312-0.177 0.45-0.256 0.138-0.079 0.229-0.141 0.273-0.186v0c-0.043-0.082-0.106-0.233-0.19-0.451-0.083-0.218-0.184-0.461-0.3-0.729-0.114-0.277-0.237-0.579-0.37-0.906-0.138-0.324-0.269-0.641-0.393-0.951v0c-0.317-0.754-0.65-1.567-0.999-2.439v0l-0.83-1.922-0.304 0.191z" fill="#007879" data-fill-palette-color="primary"></path><path d="M91.681 8.585c-0.011 1.634-0.246 3.066-0.706 4.294-0.453 1.228-1.026 2.271-1.721 3.129-0.694 0.857-1.453 1.509-2.276 1.956-0.831 0.447-1.627 0.693-2.388 0.737v0c-0.589 0.034-1.159-0.062-1.71-0.289-0.544-0.221-1.027-0.578-1.447-1.071-0.421-0.493-0.763-1.124-1.027-1.893-0.271-0.768-0.437-1.678-0.498-2.73v0c-0.12-2.052 0.071-3.856 0.571-5.413 0.5-1.563 1.17-2.881 2.011-3.952 0.834-1.071 1.75-1.882 2.747-2.432 0.997-0.556 1.942-0.86 2.836-0.912v0c0.635-0.037 1.195 0.043 1.677 0.241 0.483 0.198 0.888 0.473 1.214 0.825 0.32 0.36 0.564 0.784 0.732 1.273 0.162 0.495 0.259 1.021 0.291 1.577v0l-3.23 0.816c-0.183-0.627-0.401-1.069-0.655-1.327-0.254-0.257-0.533-0.377-0.838-0.36v0c-0.397 0.023-0.818 0.33-1.261 0.921-0.444 0.59-0.845 1.344-1.203 2.261-0.365 0.918-0.659 1.918-0.881 3-0.222 1.082-0.32 2.14-0.293 3.175v0c0.058 0.986 0.244 1.683 0.56 2.089 0.322 0.4 0.712 0.586 1.168 0.56v0c0.324-0.019 0.651-0.118 0.979-0.296 0.335-0.179 0.63-0.422 0.884-0.729 0.254-0.314 0.459-0.671 0.615-1.072 0.163-0.401 0.237-0.831 0.223-1.288v0l-2.529 0.526 0.319-2.39c0.743-0.136 1.468-0.275 2.177-0.415v0c0.598-0.115 1.231-0.244 1.9-0.39 0.669-0.152 1.255-0.292 1.759-0.421z" fill="#007879" data-fill-palette-color="primary"></path><path d="M114.146 21.172l-3.969-0.476c1.167-1.814 2.307-3.589 3.422-5.324v0c0.444-0.752 0.92-1.53 1.428-2.335 0.499-0.801 0.988-1.603 1.466-2.406 0.476-0.796 0.93-1.565 1.363-2.307 0.442-0.745 0.828-1.431 1.159-2.056v0c0.95 0.066 1.936 0.228 2.96 0.487 1.032 0.255 2.03 0.571 2.993 0.949v0c0.58 0.227 1.032 0.483 1.355 0.766 0.323 0.283 0.546 0.588 0.667 0.913 0.119 0.332 0.158 0.678 0.117 1.039-0.036 0.363-0.131 0.743-0.286 1.138v0c-0.235 0.599-0.568 1.141-1.001 1.627-0.429 0.494-0.919 0.929-1.472 1.303-0.544 0.371-1.128 0.679-1.751 0.926-0.615 0.243-1.235 0.399-1.86 0.467v0c0.033 0.697 0.063 1.456 0.089 2.279 0.033 0.825 0.057 1.607 0.074 2.346v0c0.004 0.863 0.015 1.725 0.033 2.587v0l-3.916-0.146c0.076-1.067 0.157-2.064 0.243-2.991v0c0.034-0.378 0.07-0.77 0.108-1.176 0.038-0.405 0.078-0.788 0.119-1.149 0.036-0.363 0.076-0.686 0.123-0.967 0.04-0.283 0.085-0.508 0.136-0.673v0l-0.329-0.033c-0.273 0.441-0.6 0.958-0.981 1.549-0.373 0.587-0.728 1.157-1.065 1.708v0c-0.403 0.647-0.811 1.298-1.225 1.955zM121.283 9.828l-2.099 3.257c0.294 0.087 0.685 0.105 1.175 0.055 0.49-0.05 0.977-0.148 1.461-0.293 0.482-0.139 0.92-0.312 1.315-0.521 0.386-0.205 0.627-0.427 0.721-0.668v0c0.063-0.16 0.061-0.311-0.005-0.45-0.069-0.134-0.185-0.265-0.348-0.393-0.166-0.122-0.356-0.236-0.571-0.341-0.217-0.099-0.443-0.195-0.678-0.287v0c-0.167-0.065-0.335-0.128-0.504-0.187-0.175-0.062-0.331-0.119-0.467-0.172z" fill="#007879" data-fill-palette-color="primary"></path><path d="M142.814 40.767c-0.328-0.235-0.688-0.494-1.081-0.776-0.393-0.282-0.746-0.539-1.06-0.769v0c0.418-0.322 0.831-0.64 1.24-0.953v0c0.348-0.28 0.695-0.566 1.043-0.855 0.343-0.285 0.639-0.528 0.888-0.73v0l-1.467-1.473-3.119 1.744c-0.276-0.212-0.604-0.466-0.983-0.762-0.379-0.306-0.73-0.588-1.052-0.847v0c-0.407-0.315-0.807-0.623-1.201-0.924v0c1.953-1.045 3.875-2.075 5.767-3.087v0c0.793-0.425 1.622-0.87 2.486-1.337 0.859-0.462 1.718-0.924 2.577-1.386 0.859-0.462 1.683-0.903 2.471-1.323 0.789-0.429 1.505-0.829 2.148-1.198v0c0.819 0.71 1.666 1.424 2.54 2.144 0.87 0.715 1.75 1.382 2.639 2.004v0c-0.395 0.327-0.881 0.736-1.458 1.227-0.573 0.496-1.193 1.043-1.861 1.641-0.667 0.598-1.362 1.22-2.086 1.865-0.724 0.655-1.435 1.297-2.135 1.929v0c-1.612 1.492-3.327 3.077-5.145 4.755v0c-0.398-0.287-0.781-0.583-1.151-0.889zM149.765 30.749l-5.296 3.18c0.047 0.047 0.131 0.127 0.253 0.24 0.126 0.108 0.257 0.226 0.393 0.353 0.136 0.127 0.262 0.244 0.378 0.352 0.117 0.108 0.204 0.176 0.26 0.205v0c0.066-0.065 0.19-0.171 0.374-0.316 0.183-0.145 0.385-0.313 0.606-0.505 0.23-0.192 0.481-0.4 0.753-0.624 0.268-0.229 0.531-0.449 0.79-0.659v0c0.625-0.528 1.301-1.089 2.029-1.683v0l1.585-1.367-0.273-0.233z" fill="#007879" data-fill-palette-color="primary"></path><path d="M155.639 60.899l-1.545-3.633c2.235-0.031 4.421-0.081 6.559-0.149v0c0.897-0.024 1.837-0.055 2.82-0.094 0.983-0.039 1.956-0.075 2.92-0.108 0.973-0.029 1.906-0.068 2.801-0.119 0.888-0.049 1.712-0.103 2.47-0.163v0c0.287 0.827 0.602 1.595 0.947 2.304 0.35 0.707 0.712 1.476 1.085 2.307v0c-0.349 0.065-0.739 0.144-1.171 0.238-0.431 0.093-0.884 0.184-1.358 0.271-0.481 0.09-0.973 0.18-1.475 0.27-0.508 0.092-1.157 0.215-1.945 0.37-0.795 0.156-1.787 0.339-2.978 0.549v0l0.104 0.3c1.296 0.035 2.373 0.064 3.231 0.09 0.858 0.025 1.559 0.045 2.105 0.059 0.543 0.008 1.079 0.026 1.607 0.053 0.525 0.036 1.023 0.066 1.495 0.092 0.474 0.032 0.897 0.068 1.269 0.107v0c0.155 0.367 0.316 0.708 0.481 1.022 0.159 0.317 0.321 0.632 0.487 0.947 0.169 0.306 0.338 0.62 0.505 0.941 0.17 0.327 0.362 0.678 0.576 1.053v0c-0.923 0.152-1.867 0.322-2.834 0.509-0.962 0.179-1.919 0.375-2.871 0.586-0.945 0.209-1.879 0.42-2.8 0.634-0.924 0.208-1.797 0.413-2.619 0.614v0c-1.93 0.466-3.803 0.941-5.622 1.424v0l-2.067-3.683c0.075-0.026 0.282-0.087 0.621-0.183 0.341-0.09 0.759-0.2 1.254-0.33 0.495-0.13 1.046-0.261 1.652-0.394 0.611-0.142 1.222-0.28 1.835-0.416 0.606-0.133 1.198-0.258 1.776-0.374 0.577-0.116 1.073-0.204 1.487-0.263v0l-0.072-0.207c-0.704 0.013-1.449 0.011-2.233-0.004-0.791-0.013-1.592-0.027-2.403-0.04-0.818-0.011-1.616-0.025-2.394-0.043-0.784-0.016-1.527-0.011-2.226 0.014v0c-0.195-0.522-0.37-0.966-0.526-1.333-0.149-0.369-0.326-0.799-0.532-1.289v0l8.623-2.181-0.118-0.338c-0.203 0.042-0.555 0.08-1.055 0.113-0.499 0.04-1.072 0.084-1.722 0.134-0.649 0.05-1.325 0.095-2.027 0.135-0.708 0.042-1.362 0.08-1.961 0.112-0.608 0.028-1.104 0.053-1.49 0.075-0.394 0.017-0.616 0.024-0.666 0.02z" fill="#007879" data-fill-palette-color="primary"></path><path d="M18.977 121.348c-0.79 0.272-1.669 0.446-2.64 0.522-0.968 0.081-1.958 0.069-2.969-0.038-1.014-0.113-2.022-0.33-3.023-0.651-1.01-0.325-1.943-0.764-2.8-1.316-0.863-0.551-1.632-1.215-2.308-1.992-0.675-0.777-1.189-1.676-1.541-2.698v0c-0.074-0.213-0.133-0.427-0.179-0.643-0.055-0.22-0.103-0.441-0.146-0.665v0c2.234-0.315 4.412-0.618 6.535-0.908v0c0.892-0.139 1.818-0.28 2.779-0.423 0.961-0.142 1.906-0.289 2.835-0.441 0.936-0.155 1.829-0.298 2.682-0.431 0.858-0.135 1.629-0.268 2.313-0.399v0c0.344 0.611 0.684 1.23 1.02 1.858 0.338 0.634 0.627 1.299 0.867 1.994v0c0.283 0.821 0.395 1.561 0.335 2.22-0.06 0.659-0.257 1.246-0.592 1.761-0.336 0.509-0.779 0.953-1.329 1.332-0.543 0.377-1.156 0.683-1.839 0.918zM18.889 115.361c-0.946 0.144-1.862 0.264-2.749 0.359-0.884 0.102-1.774 0.205-2.67 0.312-0.896 0.106-1.833 0.226-2.811 0.359-0.971 0.132-2.024 0.302-3.158 0.512v0c0.37 0.279 0.82 0.517 1.35 0.712 0.539 0.2 1.133 0.356 1.782 0.469 0.651 0.119 1.323 0.196 2.015 0.23 0.694 0.041 1.361 0.053 2.001 0.036 0.641-0.011 1.229-0.056 1.763-0.135 0.536-0.073 0.986-0.172 1.349-0.298v0c0.564-0.195 0.952-0.504 1.164-0.927 0.207-0.415 0.195-0.958-0.036-1.629z" fill="#007879" data-fill-palette-color="primary"></path><path d="M23.034 149.284c-0.096-0.11-0.298-0.312-0.606-0.607-0.308-0.294-0.63-0.594-0.966-0.899-0.341-0.301-0.648-0.574-0.923-0.82-0.27-0.24-0.423-0.366-0.459-0.377v0c0.63-0.336 1.319-0.716 2.067-1.138 0.744-0.427 1.523-0.875 2.337-1.344 0.809-0.474 1.625-0.96 2.449-1.457 0.82-0.502 1.611-0.987 2.372-1.454v0c1.773-1.093 3.587-2.225 5.441-3.397v0l2.924 2.44c-1.866 1.138-3.697 2.25-5.494 3.337v0c-0.761 0.468-1.55 0.956-2.365 1.462-0.816 0.507-1.626 1.009-2.432 1.507-0.801 0.494-1.573 0.98-2.316 1.458-0.743 0.479-1.42 0.908-2.029 1.289z" fill="#007879" data-fill-palette-color="primary"></path><path d="M51.413 170.577c-0.38-0.131-0.804-0.272-1.27-0.425-0.466-0.153-0.885-0.288-1.257-0.406v0c0.303-0.44 0.602-0.871 0.897-1.294v0c0.249-0.379 0.495-0.759 0.738-1.14 0.243-0.382 0.453-0.706 0.63-0.973v0l-1.862-0.968-2.457 2.634c-0.333-0.121-0.727-0.269-1.181-0.446-0.451-0.167-0.873-0.327-1.264-0.478v0c-0.489-0.18-0.968-0.358-1.437-0.534v0c1.555-1.597 3.087-3.17 4.594-4.718v0c0.63-0.651 1.29-1.332 1.98-2.041 0.684-0.713 1.366-1.42 2.044-2.121 0.687-0.704 1.346-1.381 1.976-2.032 0.624-0.654 1.188-1.258 1.692-1.811v0c1.007 0.434 2.04 0.863 3.098 1.286 1.052 0.42 2.102 0.794 3.149 1.122v0c-0.286 0.434-0.628 0.978-1.026 1.629-0.399 0.652-0.83 1.366-1.293 2.142-0.454 0.773-0.928 1.584-1.422 2.432-0.5 0.846-0.989 1.679-1.467 2.499v0c-1.092 1.928-2.253 3.973-3.482 6.137v0c-0.466-0.153-0.926-0.317-1.38-0.494zM55.024 158.825l-4.113 4.677c0.059 0.031 0.165 0.078 0.318 0.142 0.156 0.074 0.318 0.15 0.486 0.231 0.168 0.08 0.324 0.153 0.467 0.22 0.147 0.062 0.253 0.102 0.319 0.121v0c0.046-0.088 0.131-0.231 0.256-0.427 0.131-0.194 0.276-0.417 0.437-0.669 0.152-0.25 0.326-0.526 0.52-0.828 0.192-0.296 0.38-0.587 0.566-0.872v0c0.429-0.696 0.906-1.442 1.432-2.237v0l1.091-1.798-0.326-0.147z" fill="#007879" data-fill-palette-color="primary"></path><path d="M91.737 170.707c-0.209 1.628-0.613 3.032-1.213 4.212-0.601 1.18-1.299 2.158-2.095 2.935-0.796 0.77-1.632 1.332-2.51 1.686-0.884 0.347-1.709 0.497-2.477 0.452v0c-0.596-0.035-1.154-0.197-1.675-0.487-0.521-0.283-0.962-0.697-1.322-1.243-0.36-0.546-0.629-1.216-0.808-2.01-0.179-0.801-0.237-1.731-0.175-2.79v0c0.121-2.065 0.522-3.851 1.201-5.358 0.686-1.5 1.512-2.737 2.48-3.71 0.967-0.973 1.981-1.677 3.043-2.112 1.062-0.442 2.043-0.637 2.943-0.584v0c0.642 0.038 1.191 0.183 1.648 0.435 0.457 0.253 0.826 0.577 1.108 0.972 0.282 0.395 0.478 0.848 0.588 1.359 0.109 0.518 0.147 1.055 0.114 1.611v0l-3.332 0.432c-0.108-0.644-0.273-1.112-0.496-1.404-0.229-0.286-0.496-0.438-0.8-0.456v0c-0.397-0.023-0.854 0.235-1.37 0.776-0.51 0.541-1 1.25-1.47 2.126-0.469 0.869-0.881 1.834-1.236 2.896-0.354 1.055-0.575 2.101-0.663 3.139v0c-0.058 0.993 0.045 1.713 0.312 2.16 0.273 0.441 0.641 0.675 1.104 0.702v0c0.324 0.019 0.663-0.041 1.017-0.179 0.354-0.145 0.675-0.355 0.963-0.631 0.289-0.282 0.538-0.616 0.747-1.002 0.208-0.38 0.333-0.801 0.373-1.263v0l-2.594 0.236 0.596-2.356c0.76-0.055 1.504-0.108 2.231-0.158v0c0.614-0.044 1.264-0.102 1.953-0.174 0.688-0.072 1.294-0.143 1.816-0.212z" fill="#007879" data-fill-palette-color="primary"></path><path d="M119.837 173.369l-3.264 2.356c-0.377-2.145-0.747-4.239-1.112-6.282v0c-0.187-0.86-0.368-1.76-0.545-2.702-0.174-0.936-0.359-1.864-0.555-2.784-0.194-0.914-0.386-1.796-0.577-2.647-0.182-0.847-0.365-1.616-0.55-2.305v0c0.748-0.599 1.591-1.156 2.528-1.673 0.94-0.51 1.894-0.955 2.864-1.334v0c0.587-0.23 1.093-0.353 1.52-0.37 0.436-0.014 0.81 0.06 1.123 0.222 0.313 0.162 0.579 0.389 0.8 0.68 0.217 0.3 0.404 0.65 0.561 1.052v0c0.234 0.599 0.362 1.225 0.383 1.879 0.015 0.656-0.052 1.313-0.201 1.969-0.149 0.656-0.369 1.287-0.659 1.891-0.29 0.605-0.646 1.143-1.067 1.614v0c0.506 0.493 1.052 1.033 1.639 1.622 0.58 0.592 1.132 1.155 1.655 1.692v0c0.589 0.631 1.187 1.259 1.794 1.882v0l-2.998 2.572c-0.677-0.839-1.299-1.628-1.866-2.367v0c-0.234-0.307-0.475-0.622-0.722-0.945-0.25-0.329-0.485-0.64-0.706-0.931-0.214-0.293-0.405-0.561-0.57-0.802-0.163-0.235-0.284-0.434-0.362-0.595v0l-0.26 0.208c0.1 0.509 0.211 1.113 0.336 1.813 0.128 0.69 0.256 1.356 0.385 1.995v0c0.137 0.751 0.279 1.514 0.426 2.29zM117.352 160.085l0.682 3.844c0.272-0.142 0.572-0.395 0.9-0.757 0.332-0.372 0.628-0.78 0.888-1.224 0.257-0.435 0.46-0.863 0.608-1.284 0.142-0.419 0.168-0.745 0.075-0.98v0c-0.065-0.167-0.17-0.279-0.313-0.337-0.141-0.052-0.315-0.069-0.522-0.052-0.205 0.023-0.422 0.069-0.651 0.138-0.233 0.077-0.47 0.163-0.711 0.256v0c-0.161 0.063-0.326 0.131-0.497 0.205-0.17 0.074-0.324 0.137-0.459 0.191z" fill="#007879" data-fill-palette-color="primary"></path><path d="M154.678 150.939c-0.239 0.324-0.5 0.685-0.785 1.084-0.285 0.399-0.54 0.758-0.765 1.077v0c-0.329-0.421-0.651-0.836-0.966-1.243v0c-0.287-0.351-0.576-0.7-0.866-1.046-0.291-0.346-0.538-0.644-0.74-0.892v0l-1.481 1.487 1.777 3.133c-0.215 0.282-0.475 0.613-0.779 0.993-0.295 0.38-0.573 0.735-0.835 1.063v0c-0.318 0.413-0.631 0.817-0.94 1.211v0c-1.058-1.962-2.1-3.894-3.125-5.796v0c-0.433-0.796-0.884-1.63-1.355-2.501-0.475-0.866-0.945-1.728-1.411-2.585-0.466-0.866-0.915-1.698-1.347-2.494-0.437-0.791-0.844-1.51-1.221-2.157v0c0.716-0.831 1.434-1.688 2.155-2.57 0.716-0.878 1.387-1.767 2.013-2.669v0c0.329 0.403 0.745 0.892 1.247 1.468 0.503 0.576 1.055 1.201 1.656 1.874 0.601 0.665 1.233 1.36 1.896 2.085 0.658 0.73 1.306 1.446 1.944 2.149v0c1.512 1.619 3.116 3.339 4.812 5.16v0c-0.285 0.399-0.58 0.789-0.884 1.169zM144.547 143.974l3.23 5.324c0.047-0.047 0.124-0.134 0.231-0.26 0.117-0.127 0.239-0.258 0.365-0.395 0.126-0.136 0.243-0.263 0.351-0.38 0.103-0.122 0.173-0.211 0.211-0.268v0c-0.07-0.07-0.181-0.194-0.331-0.372-0.146-0.183-0.315-0.389-0.508-0.618-0.193-0.22-0.404-0.468-0.634-0.744-0.226-0.272-0.446-0.538-0.662-0.8v0c-0.536-0.618-1.104-1.297-1.706-2.037v0l-1.388-1.58-0.238 0.268z" fill="#007879" data-fill-palette-color="primary"></path><path d="M171.58 124.575l-1.062 3.842c-1.784-1.371-3.54-2.698-5.27-3.98v0c-0.725-0.54-1.487-1.103-2.287-1.689-0.802-0.581-1.596-1.162-2.384-1.745-0.783-0.574-1.544-1.123-2.281-1.645-0.74-0.517-1.426-0.987-2.058-1.411v0c0.292-0.839 0.519-1.645 0.682-2.416 0.171-0.776 0.37-1.609 0.595-2.499v0c0.317 0.159 0.675 0.34 1.075 0.542 0.396 0.194 0.81 0.405 1.243 0.633 0.433 0.228 0.878 0.463 1.334 0.705 0.462 0.245 1.054 0.552 1.775 0.923 0.721 0.37 1.616 0.843 2.687 1.418v0l0.101-0.292c-0.998-0.845-1.829-1.544-2.493-2.098-0.664-0.554-1.208-1.006-1.633-1.357-0.419-0.349-0.828-0.698-1.226-1.047-0.398-0.349-0.776-0.684-1.135-1.006-0.352-0.319-0.662-0.609-0.93-0.87v0c0.101-0.393 0.188-0.763 0.26-1.11 0.065-0.349 0.132-0.702 0.199-1.057 0.065-0.349 0.128-0.703 0.19-1.061 0.07-0.362 0.134-0.76 0.194-1.196v0c0.831 0.457 1.686 0.916 2.565 1.376 0.873 0.458 1.751 0.9 2.634 1.326 0.879 0.418 1.75 0.833 2.61 1.244 0.861 0.411 1.682 0.795 2.464 1.151v0c1.816 0.835 3.595 1.632 5.338 2.393v0l-0.67 4.199c-0.075-0.026-0.279-0.107-0.61-0.243-0.323-0.14-0.719-0.313-1.189-0.519-0.475-0.207-0.995-0.448-1.56-0.721-0.571-0.276-1.139-0.55-1.703-0.824-0.571-0.276-1.119-0.547-1.644-0.813-0.531-0.269-0.978-0.508-1.34-0.719v0l-0.072 0.207c0.558 0.433 1.147 0.9 1.765 1.403 0.612 0.501 1.239 1.01 1.88 1.527 0.633 0.522 1.252 1.032 1.858 1.531 0.612 0.501 1.203 0.962 1.772 1.384v0c-0.17 0.53-0.309 0.991-0.417 1.382-0.114 0.389-0.241 0.836-0.382 1.341v0l-8.184-3.655-0.117 0.338c0.183 0.099 0.486 0.288 0.908 0.568 0.42 0.286 0.9 0.611 1.44 0.975 0.545 0.372 1.108 0.761 1.69 1.166 0.582 0.406 1.121 0.783 1.618 1.131 0.501 0.357 0.911 0.65 1.231 0.88 0.32 0.231 0.5 0.36 0.539 0.388z" fill="#007879" data-fill-palette-color="primary"></path><path d="M7.049 89.924c0-1.142 0.926-2.067 2.067-2.067 1.142 0 2.067 0.926 2.068 2.067 0 1.142-0.926 2.067-2.068 2.067-1.142 0-2.067-0.926-2.067-2.067z" fill="#007879" data-fill-palette-color="primary"></path><path d="M168.157 89.924c0-1.142 0.926-2.067 2.068-2.067 1.142 0 2.067 0.926 2.067 2.067 0 1.142-0.926 2.067-2.067 2.067-1.142 0-2.067-0.926-2.068-2.067z" fill="#007879" data-fill-palette-color="primary"></path></g></svg></g></svg></g></svg></g></svg></g></svg></g></svg></g><defs></defs></svg><rect width="320" height="360" fill="none" stroke="none" visibility="hidden"></rect></g></svg></g></svg>